<svg width="23" height="16" fill="none" xmlns="http://www.w3.org/2000/svg"><path d="M19.25 2.905c-1.724 0-3.124 1.259-3.124 2.805 0 .388.349.702.78.702.432 0 .781-.314.781-.702 0-.773.701-1.402 1.562-1.402.861 0 1.562.629 1.562 1.402 0 .774-.7 1.403-1.562 1.403H1.351c-.431 0-.78.314-.78.701 0 .388.349.702.78.702H19.25c1.723 0 3.123-1.259 3.123-2.806 0-1.546-1.4-2.805-3.123-2.805Z" fill="#98989A"/><path d="M11.437.1C9.715.1 8.314 1.358 8.314 2.905c0 .387.35.701.78.701.432 0 .782-.314.782-.701 0-.774.7-1.403 1.561-1.403S13 2.132 13 2.905c0 .774-.7 1.403-1.562 1.403H1.287c-.432 0-.782.314-.782.7 0 .388.35.702.781.702h10.151c1.723 0 3.124-1.258 3.124-2.805C14.56 1.358 13.16.1 11.437.1ZM11.437 9.918H1.287c-.432 0-.782.314-.782.702 0 .387.35.7.781.7h10.151c.861 0 1.562.63 1.562 1.403 0 .774-.7 1.403-1.562 1.403-.86 0-1.561-.629-1.561-1.402 0-.388-.35-.702-.781-.702-.432 0-.781.314-.781.701 0 1.547 1.4 2.806 3.123 2.806 1.723 0 3.124-1.259 3.124-2.806 0-1.546-1.401-2.805-3.124-2.805Z" fill="#98989A"/></svg>