<svg width="23" height="17" fill="none" xmlns="http://www.w3.org/2000/svg"><path d="M.29 11.418c.3-.688.495-1.44.933-2.048.915-1.278 2.267-1.94 3.94-1.957.302 0 .457-.091.564-.354.438-1.087 1.236-1.894 2.296-2.492a.879.879 0 0 0 .37-.417C9.035 2.356 10.7 1.087 12.577.996c2.16-.109 3.93.906 4.796 2.728.058.127.253.29.39.29 2.305.045 4.134 1.722 4.348 3.616 0 .027.039.046.058.073V8.7c-.204.842-.525 1.64-1.157 2.302-.078.081-.078.253-.059.371.457 2.72-1.877 5.293-4.825 5.302-3.63.01-7.258.01-10.887 0-1.498 0-2.724-.553-3.726-1.577-.681-.716-1.002-1.586-1.226-2.501v-1.178Zm10.37 3.98h5.254c2.12 0 3.823-1.596 3.716-3.463-.107-2.012-1.897-3.426-4.076-3.235-.769.072-.895-.01-1.08-.698-.477-1.704-2.043-2.81-3.93-2.774-1.82.046-3.347 1.224-3.737 2.892-.116.498-.36.643-.885.607-.418-.027-.856-.064-1.255 0-1.829.326-3.152 1.894-2.987 3.498.195 1.867 1.703 3.163 3.688 3.172h5.292Zm-.603-11.456c.029.009.058.018.097.018 2.5-.154 4.485.978 5.438 3.135.117.263.273.309.545.318 1.567.027 2.831.634 3.814 1.776.127.145.253.3.38.453.476-.734.573-1.459.32-2.238-.447-1.405-1.692-2.14-3.444-2.04-.622.037-.797-.081-.963-.643-.399-1.387-1.381-2.175-2.88-2.41-1.284-.227-2.86.57-3.307 1.63Z" fill="#98989A"/></svg>