<svg width="23" height="18" fill="none" xmlns="http://www.w3.org/2000/svg"><path fill-rule="evenodd" clip-rule="evenodd" d="M11.644.624c-4.2 0-7.996 1.75-10.69 4.567l2.362 2.484a11.383 11.383 0 0 1 8.328-3.621 11.36 11.36 0 0 1 8.399 3.709l2.362-2.485C19.71 2.426 15.878.624 11.645.624Zm6.228 9.413-2.38 2.485a4.874 4.874 0 0 0-3.849-1.907c-1.522 0-2.887.7-3.779 1.802l-2.38-2.485c1.523-1.68 3.71-2.747 6.16-2.747a8.348 8.348 0 0 1 6.228 2.852Zm-7.768 4.742a1.678 1.678 0 0 1 1.54-.997c.735 0 1.347.454 1.592 1.12.07.174.105.384.105.577 0 .052 0 .105-.017.157a1.69 1.69 0 0 1-1.68 1.522 1.68 1.68 0 0 1-1.68-1.68v-.017c0-.245.053-.472.14-.682Z" fill="#98989A"/></svg>